<svg width="30" height="30" viewBox="0 0 30 30" fill="none" xmlns="http://www.w3.org/2000/svg">
<path d="M11.156 20.2453C14.2295 22.6033 18.7096 21.7555 20.9451 18.6201C21.117 18.3661 21.0738 18.0223 20.8069 17.8241C20.5529 17.6513 20.2098 17.6938 20.0125 17.9607C18.1436 20.5765 14.4196 21.2751 11.8557 19.3291C8.45384 16.7462 9.27616 13.0444 10.526 11.1948C12.2258 8.6743 15.6745 8.02558 18.2495 9.54575L16.2986 10.07C16.0069 10.1506 15.7983 10.4584 15.8924 10.7764C15.9736 11.0689 16.2814 11.2785 16.5986 11.1849L20.0465 10.2383C20.5965 10.0235 20.4678 9.49214 20.3583 9.34559L18.3594 6.38807C18.1993 6.13561 17.8912 6.05774 17.6265 6.19193C17.3009 6.35709 17.2591 6.77926 17.432 7.05724L18.2382 8.26835C15.8616 7.20251 12.2075 7.11817 9.53446 10.4947C8.44443 12.0099 6.57338 16.7343 11.156 20.2453Z" fill="white"/>
</svg>
