<svg width="14" height="14" viewBox="0 0 14 14" fill="none" xmlns="http://www.w3.org/2000/svg">
<path d="M9.10828 2.39594L8.66264 2.23689C7.31905 1.75734 5.86362 1.79155 4.52994 2.341C3.10852 2.92659 2.0008 4.02555 1.40698 5.43814C0.173732 8.37188 1.55756 11.763 4.49126 12.9962C5.82652 13.5575 7.31328 13.5962 8.67946 13.1045C10.0379 12.6157 11.1545 11.6492 11.8258 10.3835C11.9092 10.2261 11.8379 10.0316 11.6765 9.96373L9.85685 9.19879C9.72129 9.14181 9.55768 9.19522 9.48171 9.32239C8.66663 10.6868 6.95035 11.249 5.48473 10.6329C3.85339 9.94707 3.08458 8.06302 3.77035 6.43168C4.3986 4.9372 6.04917 4.16278 7.57665 4.58108L8.12641 4.73163L7.90552 5.25708L7.61918 5.93824C7.59778 5.98913 7.60866 6.04544 7.6475 6.08471L9.10828 2.39594ZM9.10828 2.39594L9.29164 1.95975M9.10828 2.39594L9.29164 1.95975M9.29164 1.95975L9.61371 1.19361C9.63509 1.14274 9.68297 1.11109 9.73823 1.11137C9.79347 1.1117 9.84096 1.14382 9.86183 1.19495L11.2369 4.56451C11.2508 4.59856 11.2506 4.63332 11.2363 4.66724C11.2221 4.70117 11.1974 4.7256 11.1633 4.73953L11.3522 5.20247M9.29164 1.95975L11.3522 5.20247M11.3522 5.20247L11.1632 4.73953L7.79375 6.11459M11.3522 5.20247L7.79375 6.11459M7.79375 6.11459C7.7426 6.13546 7.68637 6.12397 7.64752 6.08473L7.79375 6.11459Z" fill="white" stroke="#424446"/>
</svg>
